<svg id="Layer_1" data-name="Layer 1" xmlns="http://www.w3.org/2000/svg" viewBox="0 0 24 24"><title>aset</title><g id="mN6CBR"><path d="M24,5.7V18.5a6.3,6.3,0,0,1-4.6,5.3l-1.1.2H5.5A6.3,6.3,0,0,1,.2,19.5c-.1-.4-.1-.8-.2-1.2V5.5A6.3,6.3,0,0,1,4.5.2L5.7,0H18.5a6.3,6.3,0,0,1,5.3,4.5C23.9,4.9,23.9,5.3,24,5.7ZM22.4,12V6.3a3.4,3.4,0,0,0-.1-1,4.5,4.5,0,0,0-4.6-3.7H5.7A4.6,4.6,0,0,0,1.6,6.2V17.8a2.8,2.8,0,0,0,.1.9,4.5,4.5,0,0,0,4.6,3.7H18.7a4.4,4.4,0,0,0,3.7-4.5Z"/><path d="M12,6.6a5.4,5.4,0,0,1,0,10.8A5.4,5.4,0,0,1,6.6,12,5.4,5.4,0,0,1,12,6.6ZM15.8,12A3.8,3.8,0,1,0,12,15.8,3.8,3.8,0,0,0,15.8,12Z"/><path d="M18.9,5.1a1.3,1.3,0,1,1-1.3-1.3A1.4,1.4,0,0,1,18.9,5.1Zm-1.3-.3a.3.3,0,0,0-.3.3.3.3,0,0,0,.3.3.3.3,0,0,0,.3-.3A.3.3,0,0,0,17.6,4.8Z"/></g></svg>