<svg id="Layer_1" data-name="Layer 1" xmlns="http://www.w3.org/2000/svg" viewBox="0 0 28 20"><title>aset</title><g id="qacDNk"><path d="M0,4.7A6.1,6.1,0,0,1,1.8,1.5,5.1,5.1,0,0,1,5.5,0H22.4a5.4,5.4,0,0,1,5.5,4.5V15.3a6.6,6.6,0,0,1-1.6,3.1,5.8,5.8,0,0,1-4,1.6H5.6A5.4,5.4,0,0,1,.1,15.5V4.7Zm14,14h8.2a4.3,4.3,0,0,0,4.3-4.3V5.6a4.3,4.3,0,0,0-4.3-4.3H5.9A4.3,4.3,0,0,0,1.5,5.6v8.7A4.3,4.3,0,0,0,6,18.7Z"/><path d="M10.3,10.2V6c0-.8.4-1,1.1-.6l7.4,4.3q1.1.6,0,1.2l-7.4,4.2c-.7.4-1.1.2-1.1-.6Z"/></g></svg>