<svg id="Layer_1" data-name="Layer 1" xmlns="http://www.w3.org/2000/svg" viewBox="0 0 24 24"><title>aset</title><g id="jy12YW"><path d="M12.1,0A11.9,11.9,0,0,1,24,10.7,11.7,11.7,0,0,1,14.1,23a12.1,12.1,0,0,1-7.7-1.3.7.7,0,0,0-.9,0L.9,23.9H0a1.9,1.9,0,0,1,.1-.8L2,18.4c.2-.3.2-.5,0-.7A11.5,11.5,0,0,1,10.2.2ZM1.7,22.3l4.1-2a.7.7,0,0,1,.9,0,10.7,10.7,0,0,0,7.4,1.3,10.4,10.4,0,0,0,8.5-10.7,10.3,10.3,0,0,0-9.5-9.4,10.3,10.3,0,0,0-10,4.9c-2.2,3.6-2,7.2.3,10.8a.9.9,0,0,1,0,1Z"/><path d="M14.6,17.9a12.9,12.9,0,0,1-2.1-.7,14,14,0,0,1-6-6.3A4.4,4.4,0,0,1,7,6.1a2.1,2.1,0,0,1,2.5-.3,5.6,5.6,0,0,1,1.6,2.5c.3.6-.2,1.5-.8,1.9s-.3.3-.1.7a9.9,9.9,0,0,0,2.6,2.8c.3.1.5.2.7-.1a1.7,1.7,0,0,1,2.3-.5,6.2,6.2,0,0,1,1.8,1.4,1.6,1.6,0,0,1-.6,2.7Z"/></g></svg>