<svg id="Layer_1" data-name="Layer 1" xmlns="http://www.w3.org/2000/svg" viewBox="0 0 24 24"><title>aset</title><path d="M24,9.4a1.9,1.9,0,0,0-.8-1.5L20.4,5.8V2H15.6L13.8.6a3,3,0,0,0-3.6,0L8.4,2H3.6V5.8L.8,7.9A1.9,1.9,0,0,0,0,9.4V24H24V9.4ZM1.2,9.3a.5.5,0,0,1,.3-.4L3.6,7.3V11ZM10.4,2l.5-.4h0a1.8,1.8,0,0,1,2.2,0l.5.4ZM1.2,21.5V10.8l7.2,5.1Zm18.1-9.7-4.7,3.3-.8-.7a3,3,0,0,0-3.6,0l-.8.7L4.7,11.8V3.2H19.3Zm-6.2,3.6,9.4,7.3H1.5l9.4-7.3A1.8,1.8,0,0,1,13.1,15.4Zm2.5.5,7.2-5.1V21.5ZM20.4,11V7.3l2.1,1.6a.5.5,0,0,1,.3.4Z"/></svg>