<svg id="Layer_1" data-name="Layer 1" xmlns="http://www.w3.org/2000/svg" viewBox="0 0 260 95"><title>aset</title><path d="M228.4,83.4l2.2-.6c2-.4,2.7-.5,2.9-.3s0,.1-.1.2l-2.6.7-1.8.5a2.8,2.8,0,0,1,.6,1.8c0,2.5-3.3,4.3-6.3,4.8h-1c-1.2,0-2.4-.4-2.4-1.6a3.3,3.3,0,0,1,1.2-2,18,18,0,0,1,6.5-3.3,12.2,12.2,0,0,0-4.7-1.3c-2-.3-4.5-.9-5-2.6a3.2,3.2,0,0,1-.2-1.3c0-2.3,1.7-4.3,3.7-5.6a9.9,9.9,0,0,1,5.3-1.8,4.3,4.3,0,0,1,2.8.9,2.1,2.1,0,0,1,.8,1.7,6.6,6.6,0,0,1-.9,2.7c-.3.7-.9.9-.7.3a6.9,6.9,0,0,0,.9-2.9,2.5,2.5,0,0,0-.5-1.5,3.8,3.8,0,0,0-1.9-.5,10.8,10.8,0,0,0-5.2,1.8c-2.1,1.5-3.6,3.3-3.6,5.1a3.8,3.8,0,0,0,.1,1c.4,1.3,2.5,1.9,4.4,2.1S226.9,82.3,228.4,83.4Zm-.1.8a17.4,17.4,0,0,0-6.6,3.3c-.8.7-1.2,1.3-1.2,1.7s.6.9,1.5.9l1.1-.2c2.4-.4,5.6-2,5.7-4.3A2,2,0,0,0,228.3,84.2Z"/><path d="M232.4,83.4c0-.2-.1-.4-.1-.6a1.9,1.9,0,0,1,1.7-1.9,1,1,0,0,1,1,1.2,2.2,2.2,0,0,1-1.9,1.2,1.8,1.8,0,0,0,1.5,1.1c2,0,3.5-1.5,4.4-2.4s.4-.1.1.5a4.3,4.3,0,0,1-3.4,2.4C234.5,84.9,232.9,84.7,232.4,83.4Zm.7-.6c.9-.4,1.5-1,1.2-1.2S233.1,82.3,233.1,82.8Z"/><path d="M239.1,81h.4a.5.5,0,0,1,.3.4v.9c.5-.7,2.1-1.9,3.2-1.7s.8.5.6.7-.5.2-.5,0v-.2a4.4,4.4,0,0,0-3.3,2.7,3,3,0,0,0-.2.9c.1.3-.6,0-.7-.3S238.8,83.7,239.1,81Z"/><path d="M244.5,82.4a4,4,0,0,1,.3-1.7c0-.1.3-.1.5,0s.4.2.3.3-.5,2.6-.2,2.8.4.2.6.2,3.5-1.7,4.2-2.3.2.1,0,.5a6,6,0,0,1-3.8,2.5,1.8,1.8,0,0,1-1.5-.6A2.7,2.7,0,0,1,244.5,82.4Zm.6-3.5c0-.1.2-.5.2-.6V78c0-.1.2-.2.4-.1s.5.2.4.3v.4a2.1,2.1,0,0,0-.3.7.4.4,0,0,1-.5,0C245.1,79.2,245,79,245.1,78.9Z"/><path d="M249.8,83.4a1.4,1.4,0,0,1-.2-.6,1.9,1.9,0,0,1,1.7-1.9c.7,0,1.3.6,1,1.2a2,2,0,0,1-1.9,1.2,1.8,1.8,0,0,0,1.6,1.1c1.9,0,3.4-1.5,4.3-2.4s.4-.1.1.5a4.1,4.1,0,0,1-3.4,2.4C251.8,84.9,250.2,84.7,249.8,83.4Zm.6-.6c.9-.4,1.5-1,1.2-1.2S250.4,82.3,250.4,82.8Z"/><path d="M256.4,84.1h.7a6,6,0,0,0,2-.3l-1.7-.9c-.6-.3-1.1-.5-1.2-1.1s2.1-1.8,3.2-2,.7.4.6.6-2.7.6-3,1.2.4.5.8.8l1.9,1c.4.4,0,1-.5,1.2l-1.5.2-1.3-.2C256.1,84.5,255.9,84,256.4,84.1Z"/><path d="M92.2,56.6h1.4V68.4H92.2Z"/><path d="M113.6,56.6v9.8a2.7,2.7,0,0,1-.4,1.5,1.6,1.6,0,0,1-1.4.5h-1l-6.3-9.7v9.7h-1.4V56.6h1.7l6.8,10.6h.1c.2,0,.4-.1.4-.2s.1-.4.1-.8V56.6Z"/><path d="M122.9,56.6h4.8a7.8,7.8,0,0,1,3.4.7,3.8,3.8,0,0,1,1.8,2.1,8.1,8.1,0,0,1,.6,3.1,7.9,7.9,0,0,1-.6,3.2,4.6,4.6,0,0,1-1.8,2.1,8,8,0,0,1-3.4.6h-4.8Zm4.8,10.7a6.3,6.3,0,0,0,2.6-.5,3,3,0,0,0,1.3-1.8,6.9,6.9,0,0,0,.5-2.4,7.4,7.4,0,0,0-.5-2.5,3.2,3.2,0,0,0-1.4-1.8,4.4,4.4,0,0,0-2.5-.5h-3.4v9.5Z"/><path d="M142.3,56.6h1.4V68.4h-1.4Z"/><path d="M171.5,56.6h1.3V68.4h-1.3Z"/><path d="M202.7,67.6a4.2,4.2,0,0,1-1.4-3.4V56.6h1.4v7.6a3,3,0,0,0,1,2.6,4.5,4.5,0,0,0,2.7.7,4.7,4.7,0,0,0,2.8-.7,2.9,2.9,0,0,0,1-2.6V56.6h1.4v7.6a4,4,0,0,1-1.4,3.4,5.9,5.9,0,0,1-3.8,1.1A5.8,5.8,0,0,1,202.7,67.6Z"/><path d="M238.9,67.6a4.4,4.4,0,0,1-.9-3.2V56.6h1.4v7.8a3.5,3.5,0,0,0,.5,2.4c.5.5,1.4.5,2.5.5h4.3v1.1h-4.3C240.9,68.4,239.6,68.3,238.9,67.6Z"/><path d="M162.6,56.7a29.5,29.5,0,0,1-1.6,5.7,27.6,27.6,0,0,1-3,5,27.6,27.6,0,0,1-3-5,23.8,23.8,0,0,1-1.6-5.7H152a24.4,24.4,0,0,0,1.9,6.3,21.7,21.7,0,0,0,3.5,5.6c0,.1.1.1.2.1h1a21.7,21.7,0,0,0,3.5-5.6,24.4,24.4,0,0,0,1.9-6.3Z"/><path d="M220.1,68.4a21.2,21.2,0,0,1,4.6-10.6,29,29,0,0,1,3,4.9,29.5,29.5,0,0,1,1.6,5.7h1.4a24.4,24.4,0,0,0-1.9-6.3,24.8,24.8,0,0,0-3.5-5.6h-1c-.1,0-.2,0-.2.1a21.7,21.7,0,0,0-3.5,5.6,24.4,24.4,0,0,0-1.9,6.3Z"/><path d="M182.5,56.6h4.8a7.8,7.8,0,0,1,3.4.7,3.8,3.8,0,0,1,1.8,2.1,8.1,8.1,0,0,1,.6,3.1,7.9,7.9,0,0,1-.6,3.2,3.7,3.7,0,0,1-1.8,2.1,7.7,7.7,0,0,1-3.4.6h-4.8Zm4.8,10.7a6.3,6.3,0,0,0,2.6-.5,3.7,3.7,0,0,0,1.4-1.8,10,10,0,0,0,.4-2.4,7.4,7.4,0,0,0-.5-2.5,3,3,0,0,0-1.3-1.8,5,5,0,0,0-2.6-.5h-3.4v9.5Z"/><path d="M94,41.6c0-1-1.6-1.1-1.7-1.1h-.1v7.3h4l.4-.2a.6.6,0,0,0,.1-.4v-.6H94Z"/><path d="M102.3,40.5h0l-3,7.3h1.3l.7-1.7h2.6l.4,1a1.1,1.1,0,0,0,1.2.7h.8l-2.6-6.6C103.5,40.7,103,40.5,102.3,40.5Zm-.6,4.4.9-2.2.8,2.2Z"/><path d="M115.1,40.5h-1.7L111,43.7V40.5h-1.8v6.6a.6.6,0,0,0,.7.7H111V44.5l1.1,1.7a3,3,0,0,0,2.3,1.7,1.1,1.1,0,0,0,.8-.3h.1l-2.8-3.9Z"/><path d="M121.6,43.6l-.8-.3a.9.9,0,0,1-.8-.9c0-.6.5-.8,1.5-.8l1.1.2h.1l.3-1.1h-.1a6.1,6.1,0,0,0-1.5-.3,3.9,3.9,0,0,0-2,.5,1.8,1.8,0,0,0-1.1,1.7,2.2,2.2,0,0,0,1.7,2.1l.8.2c.2.1.5.2.6.4s.1.3.1.6a.6.6,0,0,1-.3.6,1.6,1.6,0,0,1-.9.3l-1-.2-.8-.4h-.1l-.2,1.5h.1a14.3,14.3,0,0,0,2.1.3,3.7,3.7,0,0,0,2.1-.6,1.9,1.9,0,0,0,.8-1.5,2.1,2.1,0,0,0-.5-1.5A3.5,3.5,0,0,0,121.6,43.6Z"/><path d="M128.8,40.5h-.1l-2.9,7.3h1.3l.6-1.7h2.6l.5,1a1,1,0,0,0,1.1.7h.9l-2.7-6.6C130,40.7,129.5,40.5,128.8,40.5Zm-.6,4.4.8-2.2.9,2.2Z"/><path d="M140.2,44.9l-2.6-3.7a1.6,1.6,0,0,0-.8-.6h-1.1v7.3h1.2V43.3l2.8,3.8a1.9,1.9,0,0,0,1.6.8h.1V40.5h-1.2Z"/><path d="M148.5,41.1c-.2-.4-.6-.6-1.3-.6h-.1l-3,7.3h1.4l.6-1.7h2.6l.5,1c.1.5.5.7,1.1.7h.8Zm-1.9,3.8.8-2.2.9,2.2Z"/><path d="M58.4,51.8,62.9,46,61,47.3c-4.5,3.4-6.5,6.7-6.5,9.8l2.6-3.6A15.5,15.5,0,0,1,58.4,51.8Z"/><path d="M59,46.8a34.1,34.1,0,0,1,7.4-5.1c.7-.7,1.3-1.5,1.9-2.2a31.9,31.9,0,0,0-10.2,6.4c-6.5,5.8-8.8,11-6.7,16l.9-1.4C51.3,57.3,52.2,52.9,59,46.8Z"/><path d="M85.3,21.7l1.2-1.2h-.8a33.6,33.6,0,0,0-13.6,1.3l-3.9,2.7a37.8,37.8,0,0,1,14.1-2.9Z"/><path d="M48.9,66.1c.2-.4.5-.8.7-1.3-2.7-4.4-3-11,6.5-19.4,5-4.4,10-7.3,14.6-8.6l1.5-1.6c-5.3,1-11.2,4.1-16.9,9.2S43,57.4,48.9,66.1Z"/><path d="M42.7,59.2c-.3,5.1,2.5,8.9,4.5,11.1a13.3,13.3,0,0,0,10.9,5,30,30,0,0,0,9.1-1.7L65,73c-7.6,2.1-12.8.9-16.8-3.5l-.6-.7h0c-1.8-2.2-3.9-5.4-3.6-9.5s3.4-10.2,9.2-15.4c7.4-6.5,14.7-10.3,21.3-11.3l1.3-1.4c-7.2.5-15.3,4.6-23.4,11.8C46.2,48.4,43,53.8,42.7,59.2Z"/><path d="M83.7,17.8l3.8.2,1.5.3,1.2-1.1-2.5-.4a30.6,30.6,0,0,0-8,0L77,18.5A31.8,31.8,0,0,1,83.7,17.8Z"/><path d="M60.8,71.9,52.7,70a11.9,11.9,0,0,0,6.9,1.9Z"/><path d="M31.9,83.2a26.8,26.8,0,0,1-8.2-19.5c0-.3.1-.7.1-1a18.5,18.5,0,0,1-1.4,1.4,28.3,28.3,0,0,0,8.6,20,35.7,35.7,0,0,0,3.7,3.1l1.8-.4A30.3,30.3,0,0,1,31.9,83.2Z"/><path d="M55,82.1c5.6,0,12.4-2,20.7-6l-1.8-.5c-15.6,7.2-25.1,6.9-32.5-.7A18.9,18.9,0,0,1,35.9,61c.2-6.7,4.1-13.4,11.5-20,15-13.2,26.5-15.9,33.3-15.9h1L83,24c-4.6-.5-12.3.2-22.4,5.9-7,5.2-13.7,10.7-20,16.3-3.8,4.9-5.8,9.8-6,14.8a20,20,0,0,0,5.9,14.8A19.2,19.2,0,0,0,55,82.1Z"/><path d="M25.6,88.7a31.8,31.8,0,0,1-9.5-17.4l-1.2,1.4c1.8,8.7,6.7,14.5,9.3,16.5l1.6-.3Z"/><path d="M34.2,81.3a26.6,26.6,0,0,0,6.5,4.8l2.1-.3a24.5,24.5,0,0,1-7.7-5.4,24,24,0,0,1-7.3-17.6,19.9,19.9,0,0,1,.6-4.9l-1.6,1.6a18.4,18.4,0,0,0-.3,3.3A25.2,25.2,0,0,0,34.2,81.3Z"/><path d="M86.8,80.1h-.1L85,79.4l-2.2,1.1Z"/><path d="M85.5,14.2a26.1,26.1,0,0,1,4,.2,15.5,15.5,0,0,1,3.1.6l1.2-1a25.9,25.9,0,0,0-4.2-.9l-3.5-.2-2.3,1.3Z"/><path d="M28.7,85.9a29.2,29.2,0,0,1-9-18.8,13.4,13.4,0,0,0-1.1,1.4,30.3,30.3,0,0,0,8.7,18.2l1.8,1.5,1.9-.3Z"/><path d="M20.9,89.9a34.5,34.5,0,0,1-8.2-14.4L11.6,77a31.9,31.9,0,0,0,7.6,13.3Z"/><path d="M16.1,90.9A37.3,37.3,0,0,1,9.6,79.6L8.4,81.2a39.7,39.7,0,0,0,6,10.1Z"/><path d="M108.8,1.3l.6.3L111.7.1h-.5Z"/><path d="M11.7,92a43.4,43.4,0,0,1-5-8.4c-.4.6-.7,1.2-1.1,1.7a32.5,32.5,0,0,0,4.2,7.1Z"/><path d="M3.3,94,1.8,91.6A26.8,26.8,0,0,0,0,94.9H.5Z"/><path d="M7.5,93a42.1,42.1,0,0,1-3.3-5.5l-1.3,2a38.9,38.9,0,0,0,2.5,4Z"/><path d="M104.9,3l1.5.8,1.4-1-1.1-.6Z"/><path d="M83,78.6,81.2,78l-6.8,3.4,4-.4Z"/><path d="M48.3,84.9l5.1-.8a20.9,20.9,0,0,1-15.2-6.4,22,22,0,0,1-6.4-15.8,23.4,23.4,0,0,1,2.7-10l-2.4,2.3a23.6,23.6,0,0,0-1.6,7.7,23.3,23.3,0,0,0,6.8,16.7A23.6,23.6,0,0,0,48.3,84.9Z"/><path d="M77.7,76.8a80.9,80.9,0,0,1-15.3,6l6.7-.8c3.2-1.2,6.6-2.8,10.3-4.6Z"/><path d="M49.5,41.5c-6.9,6.1-10.6,12.3-10.9,18.6s3.2,10.6,5.2,12.7c3.6,3.8,7.5,5.9,12.7,5.9s9.3-1.3,15.2-3.8l-2-.6C58,78.9,50.5,78,44.8,71.9a15.8,15.8,0,0,1-4.9-11.7c.3-5.9,3.8-11.9,10.4-17.7,9.8-8.6,19.5-13.4,27.8-13.7l1.3-1.3C70.5,27.4,60,32.2,49.5,41.5Z"/><path d="M95.7,7.5a28.3,28.3,0,0,1,4.4,1.2l1.2-.9a24,24,0,0,0-3.8-1.2Z"/><path d="M100.7,5l2.6,1.2,1.1-.9-2.2-1Z"/><path d="M90,10.6l1.4.2a23.6,23.6,0,0,1,4.9,1l1.2-1a30.6,30.6,0,0,0-5.6-1.3Z"/></svg>