<svg id="Layer_1" data-name="Layer 1" xmlns="http://www.w3.org/2000/svg" xmlns:xlink="http://www.w3.org/1999/xlink" viewBox="0 0 65 150"><defs><style>.cls-1,.cls-4{fill:none;}.cls-2{clip-path:url(#clip-path);}.cls-3{opacity:0.18;}.cls-4{stroke:#fff;stroke-miterlimit:10;stroke-width:2px;}</style><clipPath id="clip-path"><rect class="cls-1" width="65" height="150"/></clipPath></defs><title>aset</title><rect width="65" height="150"/><g class="cls-2"><g class="cls-3"><path class="cls-4" d="M120.8,25.2C108.8,45.9,95.5,54.2,80,48S58.4,32,64.3,9.8c7.8-29.7,28.6-34.4,44.1-27.6S132.3,5.4,120.8,25.2Z"/><path class="cls-4" d="M126.3,26.9C111.9,51.6,96.9,61.3,78.2,54.5,62.5,48.8,51.1,36.3,58.1,9.7c9.3-35.4,33.6-42.4,52.1-34.3S140,3.3,126.3,26.9Z"/><path class="cls-4" d="M131.7,28.6C115,57.3,98.3,68.5,76.4,61,59.2,55.1,43.8,40.6,51.9,9.7c10.8-41.2,38.7-50.6,60.1-41S147.7,1.1,131.7,28.6Z"/><path class="cls-4" d="M137.2,30.3C118.1,63,99.8,75.6,74.7,67.5c-18.8-6-38.3-22.6-29-57.8C58.1-37.2,89.4-49,113.8-38.1S155.4-1,137.2,30.3Z"/><path class="cls-4" d="M142.6,32c-21.4,36.8-41.4,50.6-69.7,42C52.5,67.8,29.1,49.2,39.5,9.7,53.4-43,88.2-57.1,115.6-44.9S163.1-3.2,142.6,32Z"/><path class="cls-4" d="M148.1,33.7c-23.8,40.8-45.5,56-77,46.8-21.9-6.4-49.4-27-37.8-70.8,15.4-58.5,53.8-74.9,84.2-61.4S170.8-5.3,148.1,33.7Z"/><path class="cls-4" d="M153.5,35.4C127.5,80.2,104,96.7,69.4,87c-23.5-6.6-55-29.2-42.3-77.3,16.9-64.2,58.8-83,92.2-68.2S178.4-7.4,153.5,35.4Z"/><path class="cls-4" d="M159,37.1c-28.4,48.8-53.5,66.7-91.4,56.4C42.5,86.7,7.1,62.1,20.9,9.7c18.4-70,63.8-91.1,100.2-74.9S186.1-9.6,159,37.1Z"/><path class="cls-4" d="M164.4,38.8c-30.7,52.8-57.5,72-98.6,61.2C39.2,93-.3,66.4,14.7,9.7,34.6-66.1,83.6-89.5,122.9-72S193.8-11.7,164.4,38.8Z"/><path class="cls-4" d="M169.9,40.5c-33.1,56.8-61.6,77.3-105.9,66C35.9,99.3-7.6,70.7,8.4,9.6c21.5-81.4,74-107.2,116.3-88.4S201.5-13.9,169.9,40.5Z"/><path class="cls-4" d="M175.3,42.2c-35.4,60.8-65.5,82.6-113,70.8C32.6,105.6-15,74.9,2.2,9.6c23-87.2,79-115.4,124.4-95.2S209.2-16,175.3,42.2Z"/><path class="cls-4" d="M180.8,43.9c-37.7,64.8-69.6,88-120.3,75.6C29.2,111.9-22.3,79.2-4,9.6c24.5-93,84-123.5,132.4-102S216.9-18.1,180.8,43.9Z"/><path class="cls-4" d="M186.2,45.6c-40,68.9-73.6,93.3-127.5,80.4C25.9,118.2-29.6,83.5-10.2,9.6,15.8-89.1,78.9-122,130.2-99.2S224.6-20.3,186.2,45.6Z"/><path class="cls-4" d="M191.7,47.3c-42.4,72.9-77.6,98.6-134.7,85.2C22.6,124.4-37,87.8-16.4,9.6,11.2-94.9,77.7-130.1,132-105.9S232.2-22.4,191.7,47.3Z"/><path class="cls-4" d="M197.1,49c-44.7,76.9-81.6,103.9-141.9,90-36-8.3-99.5-46.9-77.8-129.4C6.5-100.7,76.5-138.2,133.9-112.7S239.9-24.6,197.1,49Z"/><path class="cls-4" d="M202.6,50.7c-47.1,80.9-85.7,109.2-149.2,94.8C15.9,137-51.7,96.4-28.8,9.6,1.8-106.4,75.4-146.3,135.7-119.5S247.6-26.7,202.6,50.7Z"/><path class="cls-4" d="M208.1,52.4C158.6,137.3,118.4,166.9,51.7,152,12.6,143.3-59,100.7-35,9.6c32.1-121.8,109.2-164,172.5-135.9S255.3-28.8,208.1,52.4Z"/><path class="cls-4" d="M213.5,54.1C161.8,143,119.8,173.9,49.9,158.5,9.3,149.6-66.4,105-41.2,9.5-7.6-118,73-162.5,139.3-133.1S263-31,213.5,54.1Z"/><path class="cls-4" d="M219,55.8c-54.1,92.9-97.7,125-170.9,109.2C5.9,155.8-73.7,109.3-47.4,9.5-12.3-123.7,71.9-170.6,141.1-139.9S270.7-33.1,219,55.8Z"/><path class="cls-4" d="M224.4,57.5c-56.4,96.9-101.7,130.3-178,114C2.6,162.1-81,113.6-53.6,9.5-17-129.5,70.7-178.8,143-146.6S278.4-35.2,224.4,57.5Z"/><path class="cls-4" d="M229.9,59.2C171.1,160.2,124.1,194.8,44.6,178-.7,168.4-88.4,117.9-59.8,9.5-21.7-135.3,69.5-186.9,144.8-153.4S286-37.4,229.9,59.2Z"/></g></g></svg>