<svg id="Layer_1" data-name="Layer 1" xmlns="http://www.w3.org/2000/svg" xmlns:xlink="http://www.w3.org/1999/xlink" viewBox="0 0 18 16"><defs><style>.cls-1{fill:none;}.cls-2{clip-path:url(#clip-path);}.cls-3{clip-path:url(#clip-path-2);}</style><clipPath id="clip-path"><rect class="cls-1" x="-467.6" y="-474.7" width="359.5" height="269.6"/></clipPath><clipPath id="clip-path-2"><rect class="cls-1" x="-52.1" y="-474.7" width="359.5" height="269.6"/></clipPath></defs><title>aset website laksana</title><g class="cls-2"><image width="1160" height="786" transform="matrix(-1, 0, 0, 1, 212.6, -677.13)" xlink:href="../../../Links/Acura-2022-NSX-Type-S-Engineering-Ultimate-Rigidity_xl.jpg"/></g><g class="cls-3"><image width="1920" height="1080" transform="translate(-507.2 -626.8) scale(0.6)" xlink:href="../../../Links/MS-Safety-Hero-Desktop.jpeg"/></g><path d="M9,16l-.3-.2c-.8-.7-5.2-4.1-7.1-7.1S-.3,4.5.2,3A4.2,4.2,0,0,1,2.7.3C4.4-.5,7.1.3,9,2,10.9.3,13.6-.5,15.3.3h0A4.2,4.2,0,0,1,17.8,3c.5,1.5,0,3.4-1.4,5.7s-6.3,6.4-7.1,7.1ZM4.2,1l-1.1.2a3.4,3.4,0,0,0-2,2.1c-.4,1.2.1,2.8,1.3,4.8S7.7,13.8,9,14.8c1.3-1,4.9-4,6.6-6.7s1.7-3.6,1.3-4.8a3.4,3.4,0,0,0-2-2.1h0C13.5.6,11,1.4,9.3,3L9,3.3,8.7,3A7.3,7.3,0,0,0,4.2,1Z"/></svg>