<svg id="Layer_1" data-name="Layer 1" xmlns="http://www.w3.org/2000/svg" xmlns:xlink="http://www.w3.org/1999/xlink" viewBox="0 0 18 16"><defs><style>.cls-1{fill:none;}.cls-2{clip-path:url(#clip-path);}.cls-3{fill:#005cff;}</style><clipPath id="clip-path"><rect class="cls-1" x="-467.6" y="-493.2" width="359.5" height="269.6"/></clipPath></defs><title>aset website laksana</title><g class="cls-2"><image width="1160" height="786" transform="matrix(-1, 0, 0, 1, 212.6, -695.63)" xlink:href="../../../Links/Acura-2022-NSX-Type-S-Engineering-Ultimate-Rigidity_xl.jpg"/></g><path class="cls-3" d="M9,16l-.3-.2c-.8-.7-5.2-4.1-7.1-7.1S-.3,4.5.2,3A4.2,4.2,0,0,1,2.7.3C4.4-.5,7.1.3,9,2,10.9.3,13.6-.5,15.3.3h0A4.2,4.2,0,0,1,17.8,3c.5,1.5,0,3.4-1.4,5.7s-6.3,6.4-7.1,7.1Z"/></svg>